<?xml version="1.0" encoding="UTF-8" standalone="no"?>
<!-- Created with Inkscape (http://www.inkscape.org/) -->

<svg
   xmlns:dc="http://purl.org/dc/elements/1.1/"
   xmlns:cc="http://creativecommons.org/ns#"
   xmlns:rdf="http://www.w3.org/1999/02/22-rdf-syntax-ns#"
   xmlns:svg="http://www.w3.org/2000/svg"
   xmlns="http://www.w3.org/2000/svg"
   xmlns:sodipodi="http://sodipodi.sourceforge.net/DTD/sodipodi-0.dtd"
   xmlns:inkscape="http://www.inkscape.org/namespaces/inkscape"
   width="500"
   height="500"
   id="svg3429"
   version="1.1"
   inkscape:version="0.47 r22583"
   sodipodi:docname="New document 10">
  <defs
     id="defs3431">
    <inkscape:perspective
       sodipodi:type="inkscape:persp3d"
       inkscape:vp_x="0 : 526.18109 : 1"
       inkscape:vp_y="0 : 1000 : 0"
       inkscape:vp_z="744.09448 : 526.18109 : 1"
       inkscape:persp3d-origin="372.04724 : 350.78739 : 1"
       id="perspective3437" />
    <inkscape:perspective
       id="perspective3423"
       inkscape:persp3d-origin="0.5 : 0.33333333 : 1"
       inkscape:vp_z="1 : 0.5 : 1"
       inkscape:vp_y="0 : 1000 : 0"
       inkscape:vp_x="0 : 0.5 : 1"
       sodipodi:type="inkscape:persp3d" />
  </defs>
  <sodipodi:namedview
     id="base"
     pagecolor="#ffffff"
     bordercolor="#666666"
     borderopacity="1.0"
     inkscape:pageopacity="0.0"
     inkscape:pageshadow="2"
     inkscape:zoom="0.35"
     inkscape:cx="375"
     inkscape:cy="177.14286"
     inkscape:document-units="px"
     inkscape:current-layer="layer1"
     showgrid="false"
     inkscape:window-width="1920"
     inkscape:window-height="1005"
     inkscape:window-x="0"
     inkscape:window-y="25"
     inkscape:window-maximized="1" />
  <metadata
     id="metadata3434">
    <rdf:RDF>
      <cc:Work
         rdf:about="">
        <dc:format>image/svg+xml</dc:format>
        <dc:type
           rdf:resource="http://purl.org/dc/dcmitype/StillImage" />
        <dc:title></dc:title>
      </cc:Work>
    </rdf:RDF>
  </metadata>
  <g
     inkscape:label="Layer 1"
     inkscape:groupmode="layer"
     id="layer1"
     transform="translate(0,-552.36218)">
    <g
       transform="matrix(19.78821,0,0,19.78821,75,610.50128)"
       style="fill:#080c08;fill-rule:evenodd;stroke:none"
       id="g28">
      <path
         d="m 0,0 c 0,0 5.2853,4.299 5.2853,4.299 0,0 1.339,-2.115 1.339,-2.115 0,0 1.409,1.269 1.409,1.269 0,0 -1.269,14.164 -1.269,14.164 0,0 2.044,1.832 2.044,1.832 0,0 1.973,-1.832 1.973,-1.832 0,0 -1.197,-14.164 -1.197,-14.164 0,0 1.479,-1.269 1.479,-1.269 0,0 1.269,2.115 1.269,2.115 0,0 5.355,-4.229 5.355,-4.229 C 17.6873,0.07 0,0 0,0 z m 5.2153,3.383 c 0,0 -3.524,-2.748 -3.524,-2.748 0,0 5.285,0 5.285,0 0,0 -1.761,2.748 -1.761,2.748 z m 5.496,-2.748 c 0,0 5.285,0 5.285,0 0,0 -3.524,2.818 -3.524,2.818 0,0 -1.761,-2.818 -1.761,-2.818 z"
         id="path30" />
    </g>
  </g>
</svg>
