<?xml version="1.0" encoding="UTF-8" standalone="no"?>
<!-- Created with Inkscape (http://www.inkscape.org/) -->

<svg
   xmlns:dc="http://purl.org/dc/elements/1.1/"
   xmlns:cc="http://creativecommons.org/ns#"
   xmlns:rdf="http://www.w3.org/1999/02/22-rdf-syntax-ns#"
   xmlns:svg="http://www.w3.org/2000/svg"
   xmlns="http://www.w3.org/2000/svg"
   xmlns:sodipodi="http://sodipodi.sourceforge.net/DTD/sodipodi-0.dtd"
   xmlns:inkscape="http://www.inkscape.org/namespaces/inkscape"
   id="svg2"
   version="1.1"
   inkscape:version="0.47 r22583"
   width="500"
   height="500"
   sodipodi:docname="token.svg">
  <metadata
     id="metadata8">
    <rdf:RDF>
      <cc:Work
         rdf:about="">
        <dc:format>image/svg+xml</dc:format>
        <dc:type
           rdf:resource="http://purl.org/dc/dcmitype/StillImage" />
        <dc:title />
      </cc:Work>
    </rdf:RDF>
  </metadata>
  <defs
     id="defs6">
    <inkscape:perspective
       sodipodi:type="inkscape:persp3d"
       inkscape:vp_x="0 : 250 : 1"
       inkscape:vp_y="0 : 1000 : 0"
       inkscape:vp_z="500 : 250 : 1"
       inkscape:persp3d-origin="250 : 166.66667 : 1"
       id="perspective11" />
    <inkscape:path-effect
       effect="spiro"
       id="path-effect5517"
       is_visible="true" />
    <inkscape:perspective
       id="perspective3031"
       inkscape:persp3d-origin="0.5 : 0.33333333 : 1"
       inkscape:vp_z="1 : 0.5 : 1"
       inkscape:vp_y="0 : 1000 : 0"
       inkscape:vp_x="0 : 0.5 : 1"
       sodipodi:type="inkscape:persp3d" />
    <inkscape:perspective
       id="perspective5949"
       inkscape:persp3d-origin="0.5 : 0.33333333 : 1"
       inkscape:vp_z="1 : 0.5 : 1"
       inkscape:vp_y="0 : 1000 : 0"
       inkscape:vp_x="0 : 0.5 : 1"
       sodipodi:type="inkscape:persp3d" />
    <inkscape:perspective
       id="perspective7615"
       inkscape:persp3d-origin="0.5 : 0.33333333 : 1"
       inkscape:vp_z="1 : 0.5 : 1"
       inkscape:vp_y="0 : 1000 : 0"
       inkscape:vp_x="0 : 0.5 : 1"
       sodipodi:type="inkscape:persp3d" />
    <inkscape:perspective
       id="perspective7637"
       inkscape:persp3d-origin="0.5 : 0.33333333 : 1"
       inkscape:vp_z="1 : 0.5 : 1"
       inkscape:vp_y="0 : 1000 : 0"
       inkscape:vp_x="0 : 0.5 : 1"
       sodipodi:type="inkscape:persp3d" />
    <inkscape:perspective
       id="perspective2913"
       inkscape:persp3d-origin="0.5 : 0.33333333 : 1"
       inkscape:vp_z="1 : 0.5 : 1"
       inkscape:vp_y="0 : 1000 : 0"
       inkscape:vp_x="0 : 0.5 : 1"
       sodipodi:type="inkscape:persp3d" />
    <inkscape:perspective
       id="perspective2968"
       inkscape:persp3d-origin="0.5 : 0.33333333 : 1"
       inkscape:vp_z="1 : 0.5 : 1"
       inkscape:vp_y="0 : 1000 : 0"
       inkscape:vp_x="0 : 0.5 : 1"
       sodipodi:type="inkscape:persp3d" />
    <inkscape:perspective
       id="perspective2990"
       inkscape:persp3d-origin="0.5 : 0.33333333 : 1"
       inkscape:vp_z="1 : 0.5 : 1"
       inkscape:vp_y="0 : 1000 : 0"
       inkscape:vp_x="0 : 0.5 : 1"
       sodipodi:type="inkscape:persp3d" />
    <inkscape:perspective
       id="perspective3012"
       inkscape:persp3d-origin="0.5 : 0.33333333 : 1"
       inkscape:vp_z="1 : 0.5 : 1"
       inkscape:vp_y="0 : 1000 : 0"
       inkscape:vp_x="0 : 0.5 : 1"
       sodipodi:type="inkscape:persp3d" />
    <inkscape:perspective
       id="perspective3034"
       inkscape:persp3d-origin="0.5 : 0.33333333 : 1"
       inkscape:vp_z="1 : 0.5 : 1"
       inkscape:vp_y="0 : 1000 : 0"
       inkscape:vp_x="0 : 0.5 : 1"
       sodipodi:type="inkscape:persp3d" />
  </defs>
  <sodipodi:namedview
     pagecolor="#ffffff"
     bordercolor="#666666"
     borderopacity="1"
     objecttolerance="10"
     gridtolerance="10"
     guidetolerance="10"
     inkscape:pageopacity="0"
     inkscape:pageshadow="2"
     inkscape:window-width="1920"
     inkscape:window-height="1005"
     id="view"
     showgrid="false"
     inkscape:zoom="2.36"
     inkscape:cx="245.22541"
     inkscape:cy="275.59881"
     inkscape:window-x="0"
     inkscape:window-y="25"
     inkscape:window-maximized="1"
     inkscape:current-layer="color"
     inkscape:snap-grids="true"
     inkscape:snap-page="false"
     inkscape:object-paths="true"
     inkscape:snap-object-midpoints="true" />
  <g
     inkscape:groupmode="layer"
     id="token"
     inkscape:label="Token">
    <path
       sodipodi:type="arc"
       style="fill:none;stroke:#000000;stroke-width:6.28427792;stroke-miterlimit:4;stroke-dasharray:none"
       id="border_in"
       sodipodi:cx="264.5658"
       sodipodi:cy="256.10809"
       sodipodi:rx="134.53006"
       sodipodi:ry="126.44028"
       d="m 399.09586,256.10809 a 134.53006,126.44028 0 1 1 -269.06012,0 134.53006,126.44028 0 1 1 269.06012,0 z"
       transform="matrix(0.90730165,0,0,0.96535177,9.9590166,2.7656)" />
    <path
       sodipodi:type="arc"
       style="fill:#ffffff;fill-opacity:0;fill-rule:nonzero;stroke:#000000;stroke-width:6.19652271;stroke-miterlimit:4;stroke-dasharray:none;marker-start:none"
       id="border_out"
       sodipodi:cx="260.97034"
       sodipodi:cy="249.51642"
       sodipodi:rx="210.0347"
       sodipodi:ry="197.15096"
       d="m 471.00504,249.51642 a 210.0347,197.15096 0 1 1 -420.069402,0 210.0347,197.15096 0 1 1 420.069402,0 z"
       transform="matrix(0.93794292,0,0,0.99923714,5.2247213,0.67392853)" />
    <path
       style="fill:none;stroke:#000000;stroke-width:4;stroke-linecap:butt;stroke-linejoin:round;stroke-miterlimit:4;stroke-opacity:1;stroke-dasharray:none"
       d="M 200,59.119 200,80 c 4.15936,12.407668 13.22732,14.917333 25,15 l 50,0 c 12.43289,-0.34141 21.34797,-4.680334 25,-15 l 0,-20.633"
       id="side1"
       sodipodi:nodetypes="cccccc"
       inkscape:tile-cx="250"
       inkscape:tile-cy="77.0595"
       inkscape:tile-w="100"
       inkscape:tile-h="35.881"
       inkscape:tile-x0="200"
       inkscape:tile-y0="59.119" />
    <path
       inkscape:tile-y0="59.119"
       inkscape:tile-x0="200"
       sodipodi:nodetypes="cccccc"
       id="side2"
       d="m 390.53692,111.39052 -18.08347,10.4405 c -8.66568,9.80594 -6.30513,18.91386 -0.49038,29.15063 l 25,43.30127 c 6.51211,10.5965 14.72727,16.14772 25.49038,14.15064 l 17.8687,-10.3165"
       style="fill:none;stroke:#000000;stroke-width:4;stroke-linecap:butt;stroke-linejoin:round;stroke-miterlimit:4;stroke-opacity:1;stroke-dasharray:none" />
    <path
       style="fill:none;stroke:#000000;stroke-width:4.06681919;stroke-linecap:butt;stroke-linejoin:round;stroke-miterlimit:4;stroke-opacity:1;stroke-dasharray:none"
       d="M 390.31953,387.97904 371.93404,377.3641 c -8.81042,-9.96977 -6.41044,-19.22986 -0.49858,-29.63767 l 25.41755,-44.02473 c 6.62087,-10.77354 14.97324,-16.41751 25.91612,-14.38707 l 18.16713,10.48887"
       id="side3"
       sodipodi:nodetypes="cccccc"
       inkscape:tile-x0="200"
       inkscape:tile-y0="59.119" />
    <path
       inkscape:tile-y0="59.119"
       inkscape:tile-x0="200"
       sodipodi:nodetypes="cccccc"
       id="side4"
       d="m 300,440.40042 0,-20.881 c -4.15936,-12.40767 -13.22732,-14.91733 -25,-15 l -50,0 c -12.43289,0.34141 -21.34797,4.68033 -25,15 l 0,20.633"
       style="fill:none;stroke:#000000;stroke-width:4;stroke-linecap:butt;stroke-linejoin:round;stroke-miterlimit:4;stroke-opacity:1;stroke-dasharray:none" />
    <path
       style="fill:none;stroke:#000000;stroke-width:4;stroke-linecap:butt;stroke-linejoin:round;stroke-miterlimit:4;stroke-opacity:1;stroke-dasharray:none"
       d="m 109.46323,387.165 18.08347,-10.4405 c 8.66568,-9.80594 6.30513,-18.91386 0.49038,-29.15063 l -25,-43.30127 C 96.52497,293.6761 88.30981,288.12488 77.5467,290.12196 l -17.8687,10.3165"
       id="side5"
       sodipodi:nodetypes="cccccc"
       inkscape:tile-x0="200"
       inkscape:tile-y0="59.119" />
    <path
       inkscape:tile-y0="59.119"
       inkscape:tile-x0="200"
       sodipodi:nodetypes="cccccc"
       id="side6"
       d="m 109.46323,111.39068 18.08347,10.4405 c 8.66568,9.80595 6.30513,18.91387 0.49038,29.15064 l -25,43.30127 c -6.512112,10.59649 -14.72727,16.14772 -25.490378,14.15063 L 59.678,198.11722"
       style="fill:none;stroke:#000000;stroke-width:4;stroke-linecap:butt;stroke-linejoin:round;stroke-miterlimit:4;stroke-opacity:1;stroke-dasharray:none" />
    <path
       style="fill:none;stroke:#000000;stroke-width:4;stroke-linecap:butt;stroke-linejoin:round;stroke-miterlimit:4;stroke-opacity:1;stroke-dasharray:none"
       d="m 229.99999,108.00004 0,7.49997 c 13.99246,-2.17231 27.20376,-2.22385 40.00002,0 l 0,-7.49997 c -12.99442,-2.83602 -25.44093,-2.82543 -40.00002,0 z"
       id="inside1"
       sodipodi:nodetypes="ccccc"
       inkscape:tile-cx="250"
       inkscape:tile-cy="110.6885"
       inkscape:tile-w="40.00002"
       inkscape:tile-h="9.6230156"
       inkscape:tile-x0="229.99999"
       inkscape:tile-y0="105.87699" />
    <path
       inkscape:tile-y0="105.87699"
       inkscape:tile-x0="229.99999"
       sodipodi:nodetypes="ccccc"
       id="inside2"
       d="m 300.90377,115.85583 -3.74998,6.49516 c 13.20397,5.11495 24.67106,11.67597 34.64102,20.00001 l 3.74998,-6.49516 c -9.83548,-8.95328 -20.61977,-15.16736 -34.64102,-20.00001 z"
       style="fill:none;stroke:#000000;stroke-width:3.99999905;stroke-linecap:butt;stroke-linejoin:round;stroke-miterlimit:4;stroke-opacity:1;stroke-dasharray:none" />
    <path
       inkscape:tile-y0="105.87699"
       inkscape:tile-x0="229.99999"
       sodipodi:nodetypes="ccccc"
       id="inside3"
       d="m 362.32833,161.30582 -6.49517,3.74999 c 8.87751,11.03167 15.52779,22.44722 20.00001,34.64103 l 6.49517,-3.74999 c -4.04115,-12.6715 -10.27357,-23.4452 -20.00001,-34.64103 z"
       style="fill:none;stroke:#000000;stroke-width:4;stroke-linecap:butt;stroke-linejoin:round;stroke-miterlimit:4;stroke-opacity:1;stroke-dasharray:none" />
    <path
       inkscape:tile-y0="105.87699"
       inkscape:tile-x0="229.99999"
       sodipodi:nodetypes="ccccc"
       id="inside4"
       d="m 391.99997,229.99998 -7.49997,0 c 2.17231,13.99246 2.22385,27.20376 0,40.00002 l 7.49997,0 c 2.83602,-12.99442 2.82543,-25.44093 0,-40.00002 z"
       style="fill:none;stroke:#000000;stroke-width:4;stroke-linecap:butt;stroke-linejoin:round;stroke-miterlimit:4;stroke-opacity:1;stroke-dasharray:none" />
    <path
       style="fill:none;stroke:#000000;stroke-width:4;stroke-linecap:butt;stroke-linejoin:round;stroke-miterlimit:4;stroke-opacity:1;stroke-dasharray:none"
       d="m 382.32818,304.05296 -6.49517,-3.74998 c -5.11495,13.20398 -11.67597,24.67107 -20.00001,34.64103 l 6.49517,3.74999 c 8.95327,-9.83549 15.16736,-20.61978 20.00001,-34.64104 z"
       id="inside5"
       sodipodi:nodetypes="ccccc"
       inkscape:tile-x0="355.833"
       inkscape:tile-y0="300.30298" />
    <path
       style="fill:none;stroke:#000000;stroke-width:4;stroke-linecap:butt;stroke-linejoin:round;stroke-miterlimit:4;stroke-opacity:1;stroke-dasharray:none"
       d="m 335.54503,364.14399 -3.75,-6.49517 c -11.03166,8.87751 -22.44722,15.52779 -34.64103,20.00001 l 3.74999,6.49517 c 12.6715,-4.04115 23.44521,-10.27357 34.64104,-20.00001 z"
       id="inside6"
       sodipodi:nodetypes="ccccc"
       inkscape:tile-x0="355.833"
       inkscape:tile-y0="300.30298" />
    <path
       inkscape:tile-y0="384.49998"
       inkscape:tile-x0="229.99999"
       sodipodi:nodetypes="ccccc"
       id="inside7"
       d="m 269.99999,391.99995 0,-7.49997 c -13.99245,2.17231 -27.20374,2.22385 -40,0 l 0,7.49997 c 12.99442,2.83602 25.44092,2.82543 40,0 z"
       style="fill:none;stroke:#000000;stroke-width:3.99999905;stroke-linecap:butt;stroke-linejoin:round;stroke-miterlimit:4;stroke-opacity:1;stroke-dasharray:none"
       inkscape:tile-cx="249.99999"
       inkscape:tile-cy="389.31149"
       inkscape:tile-w="40"
       inkscape:tile-h="9.6230156" />
    <path
       inkscape:tile-y0="384.49998"
       inkscape:tile-x0="229.99999"
       sodipodi:nodetypes="ccccc"
       id="inside8"
       d="m 195.94703,384.144 3.74998,-6.49517 c -13.20397,-5.11495 -24.67105,-11.67596 -34.64102,-19.99999 L 161.306,364.144 c 9.83549,8.95328 20.61978,15.16735 34.64103,20 z"
       style="fill:none;stroke:#000000;stroke-width:3.99999905;stroke-linecap:butt;stroke-linejoin:round;stroke-miterlimit:4;stroke-opacity:1;stroke-dasharray:none"
       inkscape:tile-cx="249.99999"
       inkscape:tile-cy="389.31149"
       inkscape:tile-w="40"
       inkscape:tile-h="9.6230156" />
    <path
       inkscape:tile-y0="384.49998"
       inkscape:tile-x0="229.99999"
       sodipodi:nodetypes="ccccc"
       id="inside9"
       d="m 135.856,338.694 6.49517,-3.74999 c -8.8775,-11.03166 -15.52778,-22.4472 -20,-34.64101 l -6.49517,3.74998 c 4.04115,12.67151 10.27357,23.4452 20,34.64102 z"
       style="fill:none;stroke:#000000;stroke-width:3.99999905;stroke-linecap:butt;stroke-linejoin:round;stroke-miterlimit:4;stroke-opacity:1;stroke-dasharray:none"
       inkscape:tile-cx="249.99999"
       inkscape:tile-cy="389.31149"
       inkscape:tile-w="40"
       inkscape:tile-h="9.6230156" />
    <path
       inkscape:tile-y0="229.99998"
       inkscape:tile-x0="105.877"
       sodipodi:nodetypes="ccccc"
       id="inside10"
       d="m 108.00005,270 7.49997,0 c -2.17231,-13.99246 -2.22385,-27.20376 0,-40.00002 l -7.49997,0 c -2.83602,12.99442 -2.82543,25.44093 0,40.00002 z"
       style="fill:none;stroke:#000000;stroke-width:4;stroke-linecap:butt;stroke-linejoin:round;stroke-miterlimit:4;stroke-opacity:1;stroke-dasharray:none"
       inkscape:tile-cx="110.68851"
       inkscape:tile-cy="249.99999"
       inkscape:tile-w="9.6230156"
       inkscape:tile-h="40.00002" />
    <path
       style="fill:none;stroke:#000000;stroke-width:4;stroke-linecap:butt;stroke-linejoin:round;stroke-miterlimit:4;stroke-opacity:1;stroke-dasharray:none"
       d="m 115.856,195.94702 6.49517,3.74998 c 5.11496,-13.20398 11.67596,-24.67108 20,-34.64104 l -6.49515,-3.74998 c -8.95329,9.83548 -15.16736,20.61978 -20.00002,34.64104 z"
       id="inside11"
       sodipodi:nodetypes="ccccc"
       inkscape:tile-cx="250"
       inkscape:tile-cy="110.6885"
       inkscape:tile-w="40.00002"
       inkscape:tile-h="9.6230156"
       inkscape:tile-x0="229.99999"
       inkscape:tile-y0="105.87699" />
    <path
       inkscape:tile-y0="384.49998"
       inkscape:tile-x0="229.99999"
       sodipodi:nodetypes="ccccc"
       id="inside12"
       d="m 161.306,135.85584 3.74999,6.49516 c 11.03167,-8.8775 22.44721,-15.52778 34.64101,-20.00001 l -3.74998,-6.49517 c -12.67151,4.04115 -23.4452,10.27358 -34.64102,20.00002 z"
       style="fill:none;stroke:#000000;stroke-width:3.99999905;stroke-linecap:butt;stroke-linejoin:round;stroke-miterlimit:4;stroke-opacity:1;stroke-dasharray:none"
       inkscape:tile-cx="249.99999"
       inkscape:tile-cy="389.31149"
       inkscape:tile-w="40"
       inkscape:tile-h="9.6230156" />
  </g>
  <g
     inkscape:groupmode="layer"
     id="color"
     inkscape:label="Color"
     style="fill:#ff0000">
    <path
       style="fill:#ff0000;fill-opacity:1;fill-rule:nonzero;stroke:#ff0000;stroke-width:0;stroke-linecap:butt;stroke-linejoin:round;stroke-miterlimit:4;stroke-opacity:1;stroke-dasharray:none;stroke-dashoffset:0"
       d="m 185.9423,432.52582 c -24.78398,-8.75033 -46.3433,-21.80298 -68.2003,-41.2905 l -4.10027,-3.65577 7.9964,-4.53839 c 8.57335,-4.86585 11.66216,-8.29259 13.44593,-14.91697 1.11982,-4.1587 0.33512,-10.64133 -1.90132,-15.70738 -3.1794,-7.20209 -28.29078,-50.09706 -32.10317,-54.83828 -5.386946,-6.69938 -11.273566,-9.85017 -18.553102,-9.93046 -5.205483,-0.0574 -6.097885,0.22683 -12.684012,4.0401 -3.896515,2.25603 -7.378085,3.78146 -7.736823,3.38983 -0.358737,-0.39162 -1.255393,-3.95356 -1.992568,-7.91542 -4.956061,-26.63581 -4.610868,-55.56737 0.937163,-78.54615 l 1.47002,-6.08851 7.064784,4.18173 c 6.41965,3.79988 7.541764,4.18099 12.288136,4.17346 7.037373,-0.0112 12.4978,-2.63247 17.937792,-8.61117 4.35042,-4.78123 28.23328,-45.1557 32.98513,-55.76205 3.58035,-7.99152 3.56965,-14.8476 -0.0331,-21.21172 -2.21119,-3.90598 -3.72126,-5.31263 -9.32203,-8.68359 -3.67588,-2.21242 -7.06477,-4.16222 -7.53087,-4.3329 -1.22524,-0.44867 2.31849,-4.11824 11.01695,-11.40817 16.4189,-13.76022 38.72974,-26.319446 59.5339,-33.512858 l 11.22881,-3.882563 0,9.125495 c 0,8.788286 0.10178,9.295222 2.75424,13.718591 3.27329,5.458692 8.34437,8.901852 14.94617,10.148144 6.35196,1.199125 62.33007,1.125005 68.06296,-0.09012 5.94296,-1.259653 9.7504,-3.292314 13.55966,-7.239033 4.59116,-4.756845 5.76172,-8.273854 5.76172,-17.311538 l 0,-7.760271 2.50039,0.500081 c 4.91946,0.983891 19.29819,6.715529 30.15077,12.018674 13.02589,6.365144 28.16501,16.215155 39.40951,25.641138 11.62071,9.74133 11.31361,8.75891 4.04764,12.94887 -8.06589,4.65124 -9.8222,6.28721 -12.22915,11.39124 -2.9635,6.28424 -2.72164,12.7384 0.76497,20.4138 4.46382,9.82662 28.49693,50.71113 32.49832,55.28531 5.0653,5.79041 10.94322,8.62292 17.89394,8.62292 4.85584,0 6.0459,-0.38319 12.18219,-3.9226 3.88401,-2.2403 7.11506,-3.60325 7.53379,-3.17797 1.07637,1.09321 4.0584,17.19744 5.05839,27.31748 1.73104,17.5184 0.75807,38.48929 -2.55632,55.09804 -0.8717,4.36813 -1.77554,8.13269 -2.00853,8.36569 -0.23299,0.23299 -3.42724,-1.33728 -7.09834,-3.4895 -8.22501,-4.822 -12.50462,-5.57809 -19.38072,-3.42407 -8.83757,2.76847 -13.10501,8.00943 -28.92294,35.52107 -15.77778,27.44179 -17.93567,31.85132 -18.55752,37.92121 -1.00898,9.84871 2.78263,16.34037 12.90784,22.09965 3.9125,2.22546 7.31999,4.38017 7.57221,4.78825 1.07017,1.73159 -21.66752,19.94022 -34.23535,27.4161 -14.04449,8.35427 -30.64434,15.87401 -43.08194,19.51616 l -4.44915,1.30286 0,-8.45706 c 0,-7.26867 -0.28847,-9.02634 -2.05282,-12.50811 -2.84516,-5.61467 -7.90649,-9.94459 -13.53811,-11.58175 -3.97618,-1.15591 -9.496,-1.31312 -38.3825,-1.09318 -33.14778,0.25238 -33.81263,0.29103 -37.97573,2.20707 -5.04461,2.32176 -9.2894,6.19833 -11.51494,10.51605 -1.29451,2.51147 -1.62065,4.9417 -1.62065,12.07627 0,4.91264 -0.28602,8.9117 -0.63559,8.88681 -0.34958,-0.0249 -5.34991,-1.70971 -11.11185,-3.74404 l 0,0 z m 76.41562,-36.91967 c 10.87368,-1.56731 10.0194,-0.91702 9.73436,-7.40997 l -0.25,-5.69462 -2.9661,0.0985 c -1.63136,0.0542 -7.73305,0.39144 -13.55932,0.74954 -7.00662,0.43064 -13.12923,0.31152 -18.08346,-0.35186 -5.72538,-0.76663 -7.77208,-0.76903 -8.68644,-0.0102 -1.51732,1.25927 -1.62261,9.5474 -0.13688,10.77503 2.71379,2.24236 23.3909,3.36527 33.94784,1.84361 l 0,-2e-5 z m -62.63006,-13.04363 c 1.20954,-2.06393 2.19917,-4.35446 2.19917,-5.09005 0,-0.87297 -3.32833,-2.90738 -9.58361,-5.85792 -5.27099,-2.48625 -12.55884,-6.58344 -16.19524,-9.10486 -13.0297,-9.03459 -12.06772,-8.88944 -15.39526,-2.32286 -2.09168,4.12773 -2.11108,4.313 -0.62385,5.95637 4.61986,5.10489 15.67092,12.1608 26.43266,16.87679 9.60099,4.20733 10.44965,4.17784 13.16613,-0.45747 l 0,0 z m 107.15742,2.02827 c 12.7144,-4.83246 30.63497,-16.79841 30.63497,-20.45562 0,-1.98462 -3.41832,-8.1457 -4.82237,-8.69171 -0.55485,-0.21577 -2.46163,0.60151 -4.23729,1.81618 -12.58746,8.61067 -16.64392,11.04968 -24.47269,14.71462 -9.43609,4.41739 -9.80838,4.89177 -7.46343,9.51006 2.83398,5.58142 3.40146,5.75156 10.36081,3.10647 l 0,0 z m -31.65317,-11.83577 c 27.25899,-5.78672 51.46535,-19.87816 69.14761,-40.25346 43.01895,-49.57079 40.85971,-123.40094 -4.97898,-170.2442 -33.39355,-34.12537 -83.20441,-46.09874 -129.09182,-31.03066 -51.05112,16.76368 -85.55766,64.77566 -85.48574,118.94382 0.0657,49.4969 28.23258,93.24839 73.29029,113.84155 12.29412,5.6189 20.95441,8.00867 38.98305,10.75718 6.41112,0.9774 29.88308,-0.26234 38.13559,-2.01423 z M 140.14872,339.06936 c 2.81539,-1.58124 4.14745,-2.87544 4.1432,-4.02543 -0.003,-0.9322 -2.3474,-4.93644 -5.20878,-8.8983 -2.86138,-3.96187 -7.45277,-11.875 -10.2031,-17.58475 -3.51032,-7.28752 -5.43042,-10.3772 -6.4429,-10.36741 -0.79327,0.008 -2.96774,0.88727 -4.83215,1.95467 -2.98126,1.70682 -3.37988,2.29879 -3.30728,4.91162 0.0921,3.31327 6.3107,17.06088 10.56471,23.35554 3.10958,4.60123 10.01253,12.98456 10.69168,12.98456 0.24484,0 2.31242,-1.04872 4.59462,-2.3305 l 0,0 z m 228.52963,-4.27529 c 2.37267,-3.12529 5.64363,-7.89434 7.26878,-10.5979 3.63845,-6.05281 9.15286,-19.62759 8.57983,-21.12089 -0.58144,-1.51519 -7.56229,-5.11482 -9.23284,-4.76085 -0.78755,0.16688 -2.93533,3.78549 -5.08706,8.57074 -3.00263,6.67759 -9.25779,16.9609 -16.15706,26.56176 -0.56086,0.78049 -0.55435,1.63107 0.0195,2.54077 1.14563,1.81621 7.92144,5.3995 9.24775,4.89054 0.57594,-0.22101 2.98844,-2.95888 5.36112,-6.08417 l -10e-6,0 z M 117.11904,271.55959 c 0.7588,-0.9143 0.75721,-2.9614 -0.007,-8.68644 -0.89766,-6.72682 -0.85248,-11.15887 0.32251,-31.64278 l 0.17014,-2.9661 -5.65144,-0.24902 c -6.36946,-0.28065 -5.90956,-0.76423 -7.4369,7.81992 -1.93681,10.88547 -0.45838,33.65495 2.32849,35.8613 1.84282,1.45895 9.02893,1.36321 10.2739,-0.13688 z m 276.0465,0.544 c 2.81839,-1.79321 4.02322,-28.05662 1.77786,-38.75457 l -1.06722,-5.08475 -5.78764,-0.25212 -5.78763,-0.25212 0.61649,10.82132 c 0.33908,5.95172 0.65142,11.21348 0.69411,11.69279 0.0427,0.47932 -0.22365,5.41339 -0.59186,10.9646 -0.52633,7.9351 -0.43385,10.24257 0.43251,10.79211 1.36937,0.8686 8.38001,0.9211 9.71338,0.0727 l 0,3e-5 z M 128.07381,192.88292 c 4.1572,-8.85057 8.34883,-15.91183 13.40338,-22.5795 1.5525,-2.04795 2.82272,-4.42665 2.82272,-5.28598 0,-1.74562 -5.82851,-5.82097 -8.32508,-5.82097 -3.33865,0 -13.48186,14.58967 -18.93177,27.23084 -4.10539,9.52252 -4.11177,10.81144 -0.0654,13.19775 5.80574,3.42386 6.52684,2.9857 11.09611,-6.74214 l 0,0 z m 252.72401,6.85753 c 1.78975,-1.0059 3.45023,-2.34003 3.68995,-2.96473 1.82356,-4.75212 -17.555,-37.57925 -22.18384,-37.57925 -2.23021,0 -8.68199,4.22024 -8.68199,5.67906 0,0.75367 1.46103,3.31175 3.24673,5.68461 3.93958,5.23497 11.50576,17.72676 13.16524,21.73587 0.66418,1.60458 1.80001,4.3475 2.52407,6.09538 1.56015,3.76623 3.4024,4.06785 8.23984,1.34906 l 0,0 z M 172.84931,139.80433 c 7.71243,-5.525 15.65943,-10.07959 22.95593,-13.15653 2.65804,-1.1209 5.19428,-2.61104 5.63607,-3.31143 0.98341,-1.55903 -2.61844,-8.84664 -4.7,-9.50949 -1.89671,-0.60398 -13.34946,3.93031 -20.18639,7.99206 -7.20201,4.27863 -17.8532,12.58652 -17.83213,13.90899 0.0272,1.70744 5.00599,9.06221 6.12953,9.05463 0.58177,-0.004 4.18041,-2.24412 7.99699,-4.97823 l 0,0 z m 162.51657,1.30921 c 1.1849,-2.02188 2.15437,-4.4603 2.15437,-5.41871 0,-2.06631 -9.43078,-9.53599 -17.79661,-14.09586 -6.16365,-3.35955 -17.43364,-8.16521 -19.14863,-8.16521 -1.37502,0 -5.43674,6.74483 -5.40338,8.97276 0.0184,1.23024 2.62041,2.87264 10.80508,6.82028 5.92945,2.8599 14.02235,7.5283 17.98422,10.37422 3.96186,2.84593 7.664,5.17762 8.22699,5.18154 0.56297,0.004 1.99306,-1.64713 3.17796,-3.66902 l 0,0 z m -81.32021,-24.36755 c 5.12712,0.17878 11.22882,0.36472 13.55932,0.4132 l 4.23729,0.0881 0.25245,-5.30215 c 0.23597,-4.95605 0.1167,-5.35377 -1.82699,-6.09276 -4.78759,-1.82024 -19.23398,-2.7051 -28.80947,-1.76463 -13.88295,1.36355 -14.07284,1.46283 -14.09454,7.36989 -0.0236,6.4274 0.005,6.44484 9.21483,5.65858 4.47979,-0.38243 12.33999,-0.54905 17.46711,-0.37026 z"
       id="border_in_out_color" />
    <path
       style="fill:#ffff00;fill-opacity:1;fill-rule:nonzero;stroke:#ff0000;stroke-width:0;stroke-linecap:butt;stroke-linejoin:round;stroke-miterlimit:4;stroke-opacity:1;stroke-dasharray:none;stroke-dashoffset:0"
       d="m 241.4966,368.64462 c -0.81568,-0.0945 -3.2945,-0.37573 -5.50848,-0.62501 -12.90053,-1.45252 -25.52432,-5.18336 -37.92373,-11.20799 -36.44846,-17.7096 -61.31535,-52.66573 -66.12548,-92.95456 -0.76106,-6.37446 -0.86652,-19.69081 -0.2051,-25.89655 3.85423,-36.16223 23.16097,-67.65533 53.83058,-87.80827 5.94774,-3.90825 18.40932,-10.00041 25.23657,-12.33755 12.3097,-4.21392 22.75385,-6.12088 35.56852,-6.49436 26.33467,-0.76749 50.22053,6.33494 71.7234,21.32687 27.99529,19.51849 46.20423,50.27945 50.12497,84.67772 0.68173,5.98108 0.68308,19.42434 0.003,25.42372 -4.95472,43.68013 -33.02337,80.79524 -73.69889,97.45189 -13.43322,5.50091 -27.04295,8.21681 -42.43168,8.46747 -5.0106,0.0816 -9.77755,0.0711 -10.59322,-0.0234 l 0,10e-6 z"
       id="border_in_color" />
    <path
       style="fill:#008000;fill-opacity:1;fill-rule:nonzero;stroke:#ff0000;stroke-width:0;stroke-linecap:butt;stroke-linejoin:round;stroke-miterlimit:4;stroke-opacity:1;stroke-dasharray:none;stroke-dashoffset:0"
       d="m 214.11806,91.195108 c -4.30958,-1.139337 -10.37947,-7.136516 -11.08209,-10.949336 -0.28672,-1.555928 -0.40565,-6.260911 -0.26428,-10.45552 l 0.25703,-7.626561 6.77966,-1.472943 c 24.05662,-5.226516 53.23576,-5.360127 78.16811,-0.357931 l 9.12003,1.82976 0.24459,8.431911 c 0.28292,9.753125 -0.40096,11.973861 -4.95413,16.087383 -5.82783,5.265084 -8.29985,5.576112 -43.5375,5.477865 -18.64555,-0.05199 -32.76237,-0.444066 -34.73142,-0.964628 z"
       id="side_color_1" />
    <path
       style="fill:#008000;fill-opacity:1;fill-rule:nonzero;stroke:#ff0000;stroke-width:0;stroke-linecap:butt;stroke-linejoin:round;stroke-miterlimit:4;stroke-opacity:1;stroke-dasharray:none;stroke-dashoffset:0"
       d="m 413.41777,205.4876 c -8.03463,-2.96738 -10.8288,-6.46493 -25.81079,-32.30807 -15.9298,-27.47807 -18.05283,-31.85382 -18.05283,-37.20853 0,-7.43189 2.39637,-10.86249 11.31356,-16.19629 l 7.75423,-4.63818 4.91555,5.29268 c 16.22055,17.46507 31.33151,43.07892 39.49538,66.94666 l 3.40645,9.95905 -1.87479,1.15245 c -13.22363,8.12872 -15.79051,8.97843 -21.14676,7.00023 z"
       id="side_color_2" />
    <path
       style="fill:#008000;fill-opacity:1;fill-rule:nonzero;stroke:#ff0000;stroke-width:0;stroke-linecap:butt;stroke-linejoin:round;stroke-miterlimit:4;stroke-opacity:1;stroke-dasharray:none;stroke-dashoffset:0"
       d="m 380.5711,379.5247 c -6.23274,-3.5948 -7.51743,-4.74349 -9.5339,-8.52464 -4.5909,-8.60853 -3.80577,-10.88212 15.08269,-43.67689 16.30602,-28.31105 18.27922,-30.97743 25.38341,-34.30046 5.715,-2.67324 8.95943,-2.15414 17.43515,2.78957 4.16067,2.42682 7.56485,4.89994 7.56485,5.49581 0,2.06213 -6.06233,19.1921 -9.50995,26.87172 -4.11712,9.17091 -10.58761,21.00958 -15.33119,28.05056 -8.53318,12.66596 -20.96913,27.58888 -22.91339,27.49566 -0.53586,-0.0257 -4.21581,-1.91629 -8.17767,-4.20133 z"
       id="side_color_3" />
    <path
       style="fill:#008000;fill-opacity:1;fill-rule:nonzero;stroke:#ff0000;stroke-width:0;stroke-linecap:butt;stroke-linejoin:round;stroke-miterlimit:4;stroke-opacity:1;stroke-dasharray:none;stroke-dashoffset:0"
       d="m 237.77449,443.01819 c -10.71071,-0.63958 -17.7766,-1.59622 -28.6017,-3.87235 l -6.5678,-1.38098 0,-9.49602 c 0,-9.14109 0.0922,-9.62328 2.46622,-12.90055 2.91572,-4.02503 8.12414,-6.76089 15.02153,-7.89046 6.41591,-1.05072 52.21399,-1.01913 60.38596,0.0417 7.21534,0.93661 10.297,2.48987 13.9856,7.04924 2.56159,3.16632 2.63972,3.52054 2.91174,13.20188 l 0.2795,9.94826 -6.21171,1.36148 c -15.93264,3.49209 -36.21382,4.98016 -53.66934,3.93784 z"
       id="side_color_4" />
    <path
       style="fill:#008000;fill-opacity:1;fill-rule:nonzero;stroke:#ff0000;stroke-width:0;stroke-linecap:butt;stroke-linejoin:round;stroke-miterlimit:4;stroke-opacity:1;stroke-dasharray:none;stroke-dashoffset:0"
       d="m 105.79298,378.78076 c -9.57712,-10.34443 -21.794699,-28.09522 -28.529825,-41.45067 -3.754167,-7.44434 -9.735163,-22.27763 -11.979497,-29.70998 -1.571781,-5.20513 -1.689826,-6.36373 -0.713281,-7.00081 7.4988,-4.89204 14.638781,-8.37198 17.17725,-8.37198 6.254831,0 12.414237,3.88044 17.24406,10.86378 4.235543,6.12409 25.953333,43.77216 29.157043,50.5441 2.8929,6.11497 3.17476,11.76173 0.81763,16.38012 -1.89964,3.72201 -3.33281,5.029 -8.98848,8.19711 -2.33051,1.30547 -5.43226,3.08973 -6.89277,3.96503 l -2.65547,1.59145 -4.63666,-5.00815 z"
       id="side_color_5" />
    <path
       style="fill:#008000;fill-opacity:1;fill-rule:nonzero;stroke:#ff0000;stroke-width:0;stroke-linecap:butt;stroke-linejoin:round;stroke-miterlimit:4;stroke-opacity:1;stroke-dasharray:none;stroke-dashoffset:0"
       d="m 75.06286,204.03965 c -2.779723,-1.48334 -6.472582,-3.59247 -8.206354,-4.68695 l -3.152312,-1.98997 1.313034,-4.46448 c 7.031852,-23.90918 22.836083,-51.70771 40.811822,-71.7851 l 5.26064,-5.87569 7.44748,4.26123 c 8.77985,5.02357 11.31692,8.14018 11.83668,14.54055 0.5049,6.21727 -1.06092,9.66108 -16.95125,37.28206 -13.944709,24.23905 -18.09452,30.02624 -23.491379,32.7603 -5.840295,2.95871 -9.263358,2.94905 -14.868361,-0.042 l 0,0 z"
       id="side_color_6" />
    <path
       style="fill:#0000ff;fill-opacity:1;fill-rule:nonzero;stroke:#ff0000;stroke-width:0;stroke-linecap:butt;stroke-linejoin:round;stroke-miterlimit:4;stroke-opacity:1;stroke-dasharray:none;stroke-dashoffset:0"
       d="m 232.12443,111.42589 0.0624,-1.66616 1.58898,-0.26917 c 11.1586,-1.89023 21.52171,-1.93443 32.0445,-0.13669 l 2.06567,0.3529 0,1.68903 0,1.68904 -0.68339,-0.13668 c -1.10575,-0.22115 -6.17161,-0.73891 -9.4861,-0.96953 -6.94025,-0.48291 -17.08943,-0.0827 -24.63869,0.97157 l -1.01581,0.14186 0.0624,-1.66617 z"
       id="inside_color_1" />
    <path
       style="fill:#0000ff;fill-opacity:1;fill-rule:nonzero;stroke:#ff0000;stroke-width:0;stroke-linecap:butt;stroke-linejoin:round;stroke-miterlimit:4;stroke-opacity:1;stroke-dasharray:none;stroke-dashoffset:0"
       d="m 328.90295,137.36735 c -7.77914,-5.90748 -17.71791,-11.52524 -27.8285,-15.7297 l -0.8158,-0.33925 0.68022,-1.22013 c 0.37411,-0.67107 0.7543,-1.29995 0.84486,-1.39751 0.33372,-0.35951 6.61982,2.20346 12.07685,4.92399 6.56636,3.27356 12.89814,7.4527 18.10603,11.95044 l 0.83908,0.72466 -0.52129,0.98295 c -1.07045,2.01851 -0.86928,2.01229 -3.38145,0.10455 z"
       id="inside_color_2" />
    <path
       style="fill:#0000ff;fill-opacity:1;fill-rule:nonzero;stroke:#ff0000;stroke-width:0;stroke-linecap:butt;stroke-linejoin:round;stroke-miterlimit:4;stroke-opacity:1;stroke-dasharray:none;stroke-dashoffset:0"
       d="m 375.86854,194.08377 c -3.62171,-8.66271 -9.12944,-18.17816 -15.15185,-26.17713 l -1.67346,-2.2227 1.3867,-0.83048 1.3867,-0.83048 0.70864,0.8286 c 1.23859,1.44827 4.57657,5.84135 6.02244,7.92605 4.13954,5.96855 8.15194,13.63787 10.31759,19.7211 0.34915,0.98073 0.69805,1.94145 0.77535,2.13493 0.1083,0.2711 -0.17137,0.52621 -1.21936,1.11229 -0.74795,0.41827 -1.4004,0.7605 -1.44989,0.7605 -0.0495,0 -0.54578,-1.09021 -1.10286,-2.42268 z"
       id="inside_color_3" />
    <path
       style="fill:#0000ff;fill-opacity:1;fill-rule:nonzero;stroke:#ff0000;stroke-width:0;stroke-linecap:butt;stroke-linejoin:round;stroke-miterlimit:4;stroke-opacity:1;stroke-dasharray:none;stroke-dashoffset:0"
       d="m 387.02307,267.42806 c 0.19709,-0.81555 0.76328,-6.26215 0.98557,-9.48094 0.4879,-7.06481 0.0356,-18.68937 -0.97239,-24.99319 l -0.1366,-0.85426 1.684,0 1.68401,0 0.25964,1.64195 c 1.9399,12.26814 1.91117,22.07914 -0.0977,33.36864 l -0.14138,0.79449 -1.69016,0 c -1.64565,0 -1.68713,-0.0125 -1.57496,-0.47669 l 0,0 z"
       id="inside_color_4" />
    <path
       style="fill:#0000ff;fill-opacity:1;fill-rule:nonzero;stroke:#ff0000;stroke-width:0;stroke-linecap:butt;stroke-linejoin:round;stroke-miterlimit:4;stroke-opacity:1;stroke-dasharray:none;stroke-dashoffset:0"
       d="m 360.35594,335.11992 -1.28007,-0.75408 1.9962,-2.66911 c 5.79945,-7.75439 10.70213,-16.31727 14.69358,-25.66341 l 1.13401,-2.65533 1.41571,0.81328 1.41571,0.81327 -0.6017,1.63019 c -2.7396,7.42239 -6.61291,14.9731 -10.78051,21.01578 -2.40971,3.49388 -6.24058,8.29313 -6.57984,8.2431 -0.0732,-0.0108 -0.70905,-0.35895 -1.41309,-0.77369 l 0,0 z"
       id="inside_color_5" />
    <path
       style="fill:#0000ff;fill-opacity:1;fill-rule:nonzero;stroke:#ff0000;stroke-width:0;stroke-linecap:butt;stroke-linejoin:round;stroke-miterlimit:4;stroke-opacity:1;stroke-dasharray:none;stroke-dashoffset:0"
       d="m 301.30388,380.56365 c -1.09614,-1.89556 -1.08345,-1.83402 -0.42852,-2.0784 0.32513,-0.12131 2.31685,-0.9824 4.42603,-1.91352 7.74387,-3.41861 16.39496,-8.57661 24.01899,-14.32073 2.03297,-1.53169 1.87844,-1.55642 2.95461,0.47286 l 0.51186,0.9652 -0.81183,0.67776 c -5.98519,4.99671 -12.6738,9.41637 -19.09471,12.61727 -3.59882,1.79406 -10.13446,4.47998 -10.90111,4.47998 -0.085,0 -0.38894,-0.40519 -0.67532,-0.90042 z"
       id="inside_color_6" />
    <path
       style="fill:#0000ff;fill-opacity:1;fill-rule:nonzero;stroke:#ff0000;stroke-width:0;stroke-linecap:butt;stroke-linejoin:round;stroke-miterlimit:4;stroke-opacity:1;stroke-dasharray:none;stroke-dashoffset:0"
       d="m 244.07562,391.81831 c -3.15659,-0.19015 -6.61147,-0.59802 -9.92902,-1.17219 l -2.06568,-0.3575 0,-1.68162 0,-1.68161 0.68856,0.12565 c 3.3989,0.62023 11.38901,1.18884 16.68432,1.18732 5.22866,-10e-4 13.61765,-0.57095 17.64714,-1.1979 l 0.80392,-0.12508 -0.0624,1.65867 -0.0624,1.65866 -1.47734,0.27206 c -2.76914,0.50994 -8.261,1.1186 -12.05252,1.33578 -4.20641,0.24093 -5.86572,0.23731 -10.17459,-0.0222 l 0,0 z"
       id="inside_color_7" />
    <path
       style="fill:#0000ff;fill-opacity:1;fill-rule:nonzero;stroke:#ff0000;stroke-width:0;stroke-linecap:butt;stroke-linejoin:round;stroke-miterlimit:4;stroke-opacity:1;stroke-dasharray:none;stroke-dashoffset:0"
       d="m 192.56821,380.62866 c -3.9456,-1.51699 -6.73169,-2.76322 -10.38538,-4.64541 -6.80586,-3.50603 -10.25536,-5.82159 -17.74819,-11.91391 -0.41096,-0.33416 -0.40497,-0.36247 0.36994,-1.74813 0.51678,-0.9241 0.87349,-1.35375 1.03724,-1.24933 0.13727,0.0875 1.34458,0.97617 2.6829,1.97477 4.5752,3.41379 9.10704,6.29805 14.73613,9.37871 3.02314,1.65449 9.48519,4.72974 11.9027,5.66443 0.72828,0.28158 1.32044,0.60778 1.3159,0.7249 -0.0128,0.33046 -1.35483,2.50475 -1.58643,2.57024 -0.11339,0.0321 -1.15956,-0.30826 -2.32481,-0.75627 z"
       id="inside_color_8" />
    <path
       style="fill:#0000ff;fill-opacity:1;fill-rule:nonzero;stroke:#ff0000;stroke-width:0;stroke-linecap:butt;stroke-linejoin:round;stroke-miterlimit:4;stroke-opacity:1;stroke-dasharray:none;stroke-dashoffset:0"
       d="m 134.89027,334.17499 c -4.66711,-5.59741 -8.90308,-12.11209 -12.02569,-18.49481 -1.87726,-3.8372 -4.1425,-9.35449 -4.20144,-10.23316 -0.0293,-0.43752 0.18226,-0.65935 1.2034,-1.26154 0.68146,-0.40187 1.31232,-0.64945 1.40191,-0.55019 0.0896,0.0993 0.66507,1.37222 1.27885,2.82878 3.58803,8.51487 10.43079,20.10448 15.86054,26.86308 0.42478,0.52874 0.65042,0.98476 0.53882,1.08897 -0.10561,0.0986 -0.73178,0.48014 -1.39149,0.84784 l -1.19948,0.66856 -1.46542,-1.75753 0,0 z"
       id="inside_color_9" />
    <path
       style="fill:#0000ff;fill-opacity:1;fill-rule:nonzero;stroke:#ff0000;stroke-width:0;stroke-linecap:butt;stroke-linejoin:round;stroke-miterlimit:4;stroke-opacity:1;stroke-dasharray:none;stroke-dashoffset:0"
       d="m 109.73617,267.63992 c -0.0471,-0.14566 -0.23497,-1.21822 -0.41742,-2.38347 -1.09635,-7.00197 -1.50736,-14.02033 -1.18023,-20.15359 0.19369,-3.63135 0.92197,-9.75741 1.44511,-12.15574 l 0.16175,-0.74152 1.66224,-0.0624 1.66224,-0.0624 -0.12381,0.61904 c -0.20867,1.04338 -0.76346,6.53792 -0.98761,9.78116 -0.46662,6.75165 -0.0566,17.05544 0.97171,24.41738 l 0.14057,1.00635 -1.62443,0 c -1.1126,0 -1.65143,-0.0834 -1.71012,-0.26483 z"
       id="inside_color_10" />
    <path
       style="fill:#0000ff;fill-opacity:1;fill-rule:nonzero;stroke:#ff0000;stroke-width:0;stroke-linecap:butt;stroke-linejoin:round;stroke-miterlimit:4;stroke-opacity:1;stroke-dasharray:none;stroke-dashoffset:0"
       d="m 119.73239,195.73767 c -1.03195,-0.63773 -1.20401,-0.82936 -1.08876,-1.21255 0.56215,-1.86891 3.07409,-7.72704 4.7829,-11.15427 3.66978,-7.36021 6.13803,-11.09855 12.49398,-18.92299 0.33987,-0.4184 0.36001,-0.41421 1.75148,0.36394 0.9441,0.52797 1.35414,0.87137 1.24516,1.04278 -0.0894,0.14056 -0.97953,1.35056 -1.97813,2.68889 -5.79509,7.76664 -11.4884,17.8358 -14.94085,26.42435 -0.33902,0.84337 -0.71174,1.53203 -0.82827,1.53034 -0.11652,-0.002 -0.7634,-0.3439 -1.43751,-0.76049 z"
       id="inside_color_11" />
    <path
       style="fill:#0000ff;fill-opacity:1;fill-rule:nonzero;stroke:#ff0000;stroke-width:0;stroke-linecap:butt;stroke-linejoin:round;stroke-miterlimit:4;stroke-opacity:1;stroke-dasharray:none;stroke-dashoffset:0"
       d="m 164.83587,137.76704 -0.75826,-1.32415 1.00377,-0.91908 c 2.63236,-2.41023 9.75383,-7.43771 14.13937,-9.98184 4.34474,-2.52047 13.79049,-6.75374 15.30261,-6.85814 0.44909,-0.031 0.66643,0.16572 1.24591,1.1277 0.84163,1.39716 0.84764,1.43911 0.24173,1.68776 -9.83708,4.03684 -19.66262,9.61564 -28.03024,15.91517 -1.22495,0.9222 -2.26306,1.67673 -2.3069,1.67673 -0.0438,0 -0.42094,-0.59587 -0.83799,-1.32415 z"
       id="inside_color_12" />
  </g>
</svg>
