<svg id="Layer_1" data-name="Layer 1" xmlns="http://www.w3.org/2000/svg" viewBox="0 0 500 500"><title>vader</title><path d="M471.22,413c-38.7,8.49-77,15.16-116.3,18-.25.73-.55,1.59-.84,2.45-3.25,9.69-7.84,12.61-18.38,12.51-2.43,0-5.07,1.23-7.27,2.47-13.08,7.38-26.05,14.93-39.06,22.41-11.75,6.77-23.58,13.41-35.21,20.37-3.32,2-5.81,1.23-8.72-.46q-24.85-14.35-49.79-28.57c-8.62-4.93-17.22-9.88-25.94-14.64a12.29,12.29,0,0,0-6-1.5c-9.83.35-15.06-3.54-17.45-13.34a7.79,7.79,0,0,0-1-1.64c-38.56-2.88-76.89-9.3-115-17.89,0-2.94-.37-5.34.05-7.61,5.28-28.49,10.94-56.91,20.42-84.4,8.4-24.35,18.33-48.06,32.78-69.62,10.84-16.17,23.46-30.61,41.72-39.16a78.07,78.07,0,0,1,29.42-7.21c24.27-1.31,46.46,5.47,68.1,15.31a176,176,0,0,0,18.36,6.76c8,2.6,15.85,1.52,23.47-1.49,6.76-2.68,13.5-5.4,20.11-8.42a131,131,0,0,1,65.88-11.83c16.29,1.32,30.25,8.15,42.45,18.76,17.31,15.05,29.18,33.9,39,54.2,16,33.3,26.47,68.34,33.37,104.49C467.19,392.53,469.1,402.13,471.22,413ZM322.5,212.49c-15.8.69-34.71,8.47-51.68,21.38a6.29,6.29,0,0,0-2.5,5.61c.12,7.2.26,14.42,0,21.61-.16,3.89,1.39,6.05,4.6,8.08a89.72,89.72,0,0,0,47.47,13.92,147.7,147.7,0,0,0,37.41-4.63c6.55-1.61,13.06-3.58,18.78-7.52,3.21-2.2,4.3-4.68,3.47-8.53a86.38,86.38,0,0,0-10-26.07C360.74,220.57,347.12,212,322.5,212.49Zm-90.92,38.8c0-3.84-.18-7.69.06-11.52a6.79,6.79,0,0,0-3.32-6.68c-5.08-3.25-10-6.83-15.34-9.56-14.4-7.37-29.54-12.25-46-11-11.77.91-21.85,5.32-29.85,14.31-9.28,10.42-13.93,22.72-16.87,36.05-.87,4,.37,6.23,3.2,7.72,4.89,2.58,9.9,5.31,15.19,6.68,17.39,4.49,35,7.23,53.12,4.75a95.4,95.4,0,0,0,34.64-12.22c3.63-2.07,5.91-4.65,5.29-9.23C231.24,257.57,231.58,254.41,231.58,251.29Zm59.53,130.9V427.8c-6.14,0-11.7,0-17.25,0-1.15,0-2.3-.24-4.07-.43,0-2.88,0-5.47,0-8.06,0-17.78-.31-35.56.16-53.32.18-6.86-1.06-12.2-7.55-15.46a7,7,0,0,0-1.83-.16v77.09H239.31V407.79q0-9.74,0-19.46c0-6.48-.07-13,0-19.46.07-6.22.75-12.46-.06-18.95-7.42,3.5-9.43,8.63-9.23,15.95.51,18.72.18,37.47.15,56.21,0,1.82-.29,3.64-.43,5.31h-21V380.81c-6.41,7.39-10.68,14.34-9.23,23.49a36.88,36.88,0,0,1,.05,5.76v17.8H177c-.15,2.71-.26,4.69-.39,6.93H322.91v-7.43h-22.5c0-8.46-.61-16.41.17-24.23C301.45,394.35,297.4,388,291.11,382.19Zm41.2,34.12a28.82,28.82,0,0,0-1.63-3.29c-9.13-13.85-18-27.89-27.53-41.46a176.76,176.76,0,0,0-27-30c-3.38-3-8.33-5.25-10-9s-.13-8.91-.27-13.45c-.11-3.57.06-7.38-1.16-10.62-1.91-5.08-6.83-7.33-11.82-8.68-8.28-2.24-18.25,5.23-18.45,13.64-.11,5-.2,10.1.05,15.13.17,3.46-1,5.71-3.84,7.83a121.76,121.76,0,0,0-13.75,11.77c-14.37,14.74-26.47,31.24-37.43,48.57-4,6.26-7.59,12.71-11.47,19.24l5,4.45c1.36-2.16,2.58-3.9,3.6-5.75,11.5-20.91,24.27-41,40-59.08,6.5-7.48,13.84-14.13,22.9-18.63,8-4,16-3.83,23.43,1.14a119.47,119.47,0,0,1,14.25,11.08c10.05,9.18,18.11,20.07,25.46,31.37,8,12.29,15.28,25,22.9,37.58a12.76,12.76,0,0,0,1.83,1.94ZM280.48,308c22.76,24.71,43.59,49.28,59.52,78,15.32-31.21,30.72-66.65,31.2-71.84-11.28-3.84-23-5.5-34.88-6.1-12.09-.61-24.23-.34-36.35-.36C293.94,307.63,287.91,307.83,280.48,308Zm-60.74,0c-31.75-.45-61.93-2.68-91.95,6.37C138.47,338.47,149,362,160.14,385.91,176.29,357,197,332.69,219.74,307.93ZM274,333.72c10.74,11.36,21.77,22.48,32.15,34.15,10.55,11.86,19.41,25,27.44,39,3.87-5.58,3.43-9.7-.57-14.69-10.23-12.78-20.49-25.49-32.38-36.8C292.38,347.54,284,339.76,274,333.72ZM140.25,297.55c24.32.33,48,1.25,70.18-9.21a244.21,244.21,0,0,1-74-.64C137.83,291.36,138.93,294.19,140.25,297.55Zm150.36-9.14a26,26,0,0,0,11.54,5c7.11,1.29,14.25,2.71,21.44,3.2,11.08.74,22.21.77,33.33,1,1.05,0,2.62-.45,3.09-1.21,1.55-2.51,3.3-5.1,2.76-8.68C338.57,292,314.81,291.59,290.61,288.41ZM166.29,407.13c2.25-3.68,4.13-6.93,6.18-10.09,14.6-22.46,31.36-43.11,52.13-60.4.62-.51.63-1.74,1.36-3.93-2.17,1.56-3.18,2.2-4.08,3-20.41,17-39.1,35.66-55.16,56.88C162.75,397.79,163.38,401.79,166.29,407.13Zm178,8.72c8.59-18.79,32.19-80.87,32.08-85.66L338,415.47ZM162,415.37c-12.54-28.13-24.82-55.68-37.15-83.22-.2-.46-1-.68-2.55-1.75,11.35,29.16,22.25,57.17,33.26,85.44Zm6.72,14.84c-.18-3.54-4.57-7.19-8.14-6.77-3.39.41-6.56,4.3-6.28,7.73a6.93,6.93,0,0,0,7.25,6.58A7.3,7.3,0,0,0,168.7,430.21Zm177,.06a6.93,6.93,0,0,0-6.91-6.81,7.87,7.87,0,0,0-7.3,7.55c.06,3.37,3.67,6.7,7.27,6.71C343,437.73,345.79,434.76,345.69,430.27ZM264.22,272.84c-10.2-12.9-21-12.86-28.15.46C245.79,267.2,254.94,267.43,264.22,272.84ZM237.88,258.3c4.28-1.25,8.38-3.41,12.44-3.36s8.33,2.25,13.41,3.8C253.05,247.18,245.92,247.23,237.88,258.3Zm22.24-14.21c-7.45-9.4-14.64-9.22-20.54.78C246.59,240.69,253.2,240.94,260.12,244.09Z"/><path d="M220.65,14.85c.17,2,.4,3.65.43,5.27.21,12,.3,24,.59,36.05.42,17.28,1,34.56,1.47,51.84q.72,24.46,1.49,48.93c.35,11,.78,22.06,1.15,33.09,0,1.14-.11,2.3-.21,4.17-3.79-1.65-7-3.13-10.27-4.45-14.41-5.8-29.1-10.64-44.56-12.85a115.12,115.12,0,0,0-40.5,1.5,39.81,39.81,0,0,0-4.62,1.76c2.15.35,2.95.67,3.69.56,32.22-4.71,62.13,2.68,90.81,16.78,4.09,2,6.76,4.42,6.09,9.36-.21,1.56.35,3.23.66,5.65a39,39,0,0,1-4.19-1.34c-13.73-6.15-27.75-11.6-42.74-13.74-16.16-2.32-32.37-3.25-48.28,1.87-19.5,6.27-34.12,18.8-46.1,34.85C70.74,254,60.12,276.1,51,298.89c-10,24.75-17.31,50.31-23.2,76.26-2.16,9.56-3.37,19.33-5.09,29a60.1,60.1,0,0,1-2.05,6.22c-1.45-5.36-5.17-33.52-4.19-44.18a259,259,0,0,1,9.31-50.07A334.56,334.56,0,0,1,39,280.37c14-33,29.78-65.13,46.08-97a35.23,35.23,0,0,0,3.65-14.42c1.5-25.2,5.15-50,14.33-73.8C110.55,75.6,122.14,59,138.53,45.87A115.24,115.24,0,0,1,165.32,30c15.85-6.79,32.55-10.95,49.33-14.75A39.16,39.16,0,0,1,220.65,14.85Z"/><path d="M478.75,409.23c-1.64-8.28-3.28-15.5-4.46-22.8-4.21-25.88-11.6-50.89-20.57-75.49-9.4-25.79-20.73-50.66-36.61-73.27-8.93-12.72-19.47-23.88-33.3-31.7a79.23,79.23,0,0,0-37.42-10.35c-25.27-.69-48.91,5.71-71.71,17-1.76-3.57-1.06-7.19-.41-10.45.32-1.59,2.84-3,4.66-4A168.86,168.86,0,0,1,315.41,184a147.85,147.85,0,0,1,47.64-4.37c3.56.23,7.1.86,10.73.83-4.55-3.23-10-3.17-15.06-3.84-22.47-3-43.83,1.92-64.69,9.65-6.33,2.34-12.53,5-19.2,7.76-1.33-3.95-.64-7.73-.55-11.41.37-14.88.93-29.75,1.37-44.62.56-19,1.06-37.91,1.61-56.86.42-14.39.81-28.78,1.36-43.16.3-7.59.92-15.17,1.41-23.12a46.62,46.62,0,0,1,6.12.56c14.6,3.44,29.18,6.92,43.22,12.38,32.3,12.55,54.9,34.56,67.42,66.59a203.32,203.32,0,0,1,13.14,57.94c.52,6.45.86,12.92,1.64,19.34a29,29,0,0,0,2.46,8.91c7.39,15.39,15.23,30.56,22.48,46,13.14,28,27.13,55.75,36.7,85.28a211,211,0,0,1,9.61,47.05A216.14,216.14,0,0,1,484,385.47C483.72,392.57,479.87,407.79,478.75,409.23Z"/><path d="M270.64,9.16V213.89c-13.41,7.74-26.7,7.93-40.7.21V9.27A132.88,132.88,0,0,1,270.64,9.16Z"/><path d="M261.07,329.05H238.92c0-5.49-.39-10.71.1-15.85.6-6.36,9.85-10.53,16-7.4,3.53,1.78,6.36,4.18,6.07,8.84S261.07,323.7,261.07,329.05Z"/><path d="M364.76,318.45c-8.34,18.46-16.41,36.32-24.38,53.94a4.44,4.44,0,0,1-1.16.23,1,1,0,0,1-.61-.35c-5.32-7.14-10.22-14.62-16-21.36C311,337.4,299,324.3,286.29,310.11,313.23,310.5,339,311.79,364.76,318.45Z"/><path d="M135.37,318.37c25.78-6.65,51.42-7.71,78.72-8.39-19,21.22-38.18,40.33-53.6,64.18Z"/></svg>